# xmcd CD database file
#
# Track frame offsets:
#	150
#	14739
#	38380
#	81359
#	147468
#	171999
#	201495
#	223708
#	250277
#	302279
#	328902
#	342225
#	359732
#
# Disc length: 4832 seconds
#
# Revision: 0
# Processed by: cddbd v1.5.2PL0 Copyright (c) Steve Scherf et al.
# Submitted via: Feurio! 1.68 - http://www.feurio.com
#
DISCID=ce12de0d
DTITLE=Vaughan, Stevie Ray  - 30.6.1987 Philadelphia  An Unforgettable Night
DYEAR=1900
DGENRE=Blues
TTITLE0=Stevie Ray Vaughan - . . . . . . . . . . . . . . . . . . . .
TTITLE1=Stevie Ray Vaughan - . . . . . . . . . . . . . . . . . . . .
TTITLE2=Stevie Ray Vaughan - . . . . . . . . . . . . . . . . . . . .
TTITLE3=Stevie Ray Vaughan - . . . . . . . . . . . . . . . . . . . .
TTITLE4=Stevie Ray Vaughan - . . . . . . . . . . . . . . . . . . . .
TTITLE5=Stevie Ray Vaughan - . . . . . . . . . . . . . . . . . . . .
TTITLE6=Stevie Ray Vaughan - . . . . . . . . . . . . . . . . . . . .
TTITLE7=Stevie Ray Vaughan - . . . . . . . . . . . . . . . . . . . .
TTITLE8=Stevie Ray Vaughan - . . . . . . . . . . . . . . . . . . . .
TTITLE9=Stevie Ray Vaughan - . . . . . . . . . . . . . . . . . . . .
TTITLE10=Stevie Ray Vaughan - . . . . . . . . . . . . . . . . . . . .
TTITLE11=Stevie Ray Vaughan - . . . . . . . . . . . . . . . . . . . .
TTITLE12=Stevie Ray Vaughan - . . . . . . . . . . . . . . . . . . . .
EXTD=
EXTT0=
EXTT1=
EXTT2=
EXTT3=
EXTT4=
EXTT5=
EXTT6=
EXTT7=
EXTT8=
EXTT9=
EXTT10=
EXTT11=
EXTT12=
PLAYORDER=
